<?xml version="1.0" encoding="UTF-8"?>
<svg id="Layer_1" xmlns="http://www.w3.org/2000/svg" viewBox="0 0 797.43 647.04">
  <path fill="#FBFBFE" d="M786.41,48.16c-4.05-9.1-12.5-27.44-31.74-38.77-15.85-9.34-36.4-11.45-38.22-7.42-.73,1.61,1.81,3.59,8.29,11.6,0,0,1.67,2.07,12.81,17.49,9.1,12.6,12.29,50.22-5.7,77.58-17.1,25.99-45.29,32.98-74.78,40.3-17.88,4.44-61.82,14.81-116.33,2.49-48.23-10.9-71.31-32.02-114.02-23.62-12.27,2.41-21.91,6.42-28.01,9.36-6.11-2.94-15.74-6.95-28.01-9.36-42.71-8.39-65.79,12.72-114.02,23.62-54.51,12.32-98.44,1.95-116.33-2.49-29.49-7.32-57.68-14.31-74.78-40.3-17.86-27.15-15.36-64.98-5.7-77.58,4.53-5.92,8.74-12.07,13.41-17.87,6.29-7.82,8.39-9.69,7.69-11.22-1.9-4.12-22.49-1.86-38.22,7.42-19.24,11.34-27.69,29.68-31.74,38.77-13.02,29.25-17.43,72.43,3.21,110.69,17.08,31.64,44.01,46.41,64.46,57.62,10.21,5.6,31.46,16.99,61.04,21.11,31.76,4.42,55.66-1.99,56.47,1.71.73,3.34-18.97,7.17-45.09,22.4-36.51,21.29-47.25,42.52-50.18,48.9-1.58,3.45-10.93,23.84-3.99,30.23,5.55,5.12,15.53-4.26,37.08-7.42,27.47-4.03,32.76,8.05,53.62,1.76,20.88-6.29,33.63-23.83,35.37-26.29,9.58-13.54,10.22-25.39,13.69-25.1,3.31.28,5.15,11.25,8.56,43.92,4.65,44.6,3.49,45.98,6.28,57.05,4.43,17.59,9.22,21.48,25.1,53.05,16.69,33.18,25.04,49.77,27.27,60.91,9.47,47.26-20.01,68.42-2.74,104.52,2.21,4.63,9.38,19.61,25.1,29.09,10.69,6.45,19.55,8.58,35.37,11.41,29.54,5.29,55,3.43,74.15,0,15.81-2.83,24.68-4.96,35.37-11.41,15.72-9.48,22.89-24.47,25.1-29.09,17.27-36.09-12.2-57.26-2.74-104.52,2.23-11.15,10.58-27.74,27.27-60.91,15.88-31.57,20.67-35.46,25.1-53.05,2.78-11.06,1.62-12.44,6.28-57.05,3.41-32.68,5.25-43.65,8.56-43.92,3.47-.29,4.11,11.56,13.69,25.1,1.74,2.46,14.49,20,35.37,26.29,20.86,6.29,26.15-5.79,53.62-1.76,21.55,3.16,31.53,12.53,37.08,7.42,6.94-6.4-2.41-26.79-3.99-30.23-2.93-6.39-13.67-27.61-50.18-48.9-26.12-15.23-45.82-19.06-45.09-22.4.81-3.71,24.71,2.7,56.47-1.71,29.58-4.11,50.83-15.51,61.04-21.11,20.45-11.21,47.38-25.97,64.46-57.62,20.64-38.25,16.23-81.43,3.21-110.69Z"/>
</svg>